<svg width="177" height="58" fill="none" xmlns="http://www.w3.org/2000/svg"><path d="M76.256 34.152c-1.51-1.54-2.266-3.49-2.266-5.852 0-2.361.755-4.305 2.266-5.83 1.525-1.54 3.447-2.31 5.764-2.31 2.596 0 4.642.939 6.138 2.816a7.813 7.813 0 0 1 1.452 2.794h-1.98c-.308-.733-.697-1.357-1.166-1.87-1.159-1.247-2.64-1.87-4.444-1.87-1.775 0-3.227.58-4.356 1.738-1.13 1.159-1.694 2.67-1.694 4.532 0 1.863.565 3.373 1.694 4.532 1.13 1.159 2.581 1.738 4.356 1.738 1.833 0 3.351-.675 4.554-2.024.484-.557.873-1.24 1.166-2.046h1.98c-.352 1.144-.865 2.134-1.54 2.97-1.54 1.98-3.593 2.97-6.16 2.97-2.317 0-4.239-.763-5.764-2.288ZM92.356 36V20.6h1.98v13.53h8.03V36h-10.01Zm13.377-1.848c-1.511-1.54-2.266-3.49-2.266-5.852 0-2.361.755-4.305 2.266-5.83 1.525-1.54 3.446-2.31 5.764-2.31 2.317 0 4.231.77 5.742 2.31 1.525 1.525 2.288 3.469 2.288 5.83s-.763 4.312-2.288 5.852c-1.511 1.525-3.425 2.288-5.742 2.288-2.318 0-4.239-.763-5.764-2.288Zm1.408-10.384c-1.13 1.159-1.694 2.67-1.694 4.532 0 1.863.564 3.373 1.694 4.532 1.129 1.159 2.581 1.738 4.356 1.738 1.774 0 3.226-.58 4.356-1.738 1.129-1.159 1.694-2.67 1.694-4.532 0-1.863-.565-3.373-1.694-4.532-1.13-1.159-2.582-1.738-4.356-1.738-1.775 0-3.227.58-4.356 1.738ZM122.283 36V20.6h6.6c1.716 0 3.08.455 4.092 1.364 1.012.91 1.518 2.068 1.518 3.476 0 1.159-.359 2.149-1.078 2.97-.704.821-1.701 1.371-2.992 1.65l3.96 5.94h-2.31l-3.74-5.72h-4.07V36h-1.98Zm1.98-7.59h4.62c1.188 0 2.09-.264 2.706-.792.616-.543.924-1.269.924-2.178 0-.91-.308-1.628-.924-2.156-.616-.543-1.518-.814-2.706-.814h-4.62v5.94ZM137.344 36V20.6h10.78v1.87h-8.8v4.84h7.15v1.87h-7.15v4.95h8.8V36h-10.78Zm13.032-.044c-.25-.25-.374-.565-.374-.946s.124-.697.374-.946c.249-.25.564-.374.946-.374.381 0 .696.125.946.374.249.25.374.565.374.946s-.125.697-.374.946c-.25.25-.565.374-.946.374-.382 0-.697-.125-.946-.374Zm3.695.044 3.96-15.4h6.05l3.96 15.4h-1.98l-1.21-4.51h-7.59l-1.21 4.51h-1.98Zm3.63-6.38h6.71l-1.87-7.15h-2.97l-1.87 7.15ZM170.237 36V20.6h1.98V36h-1.98ZM44.418 4.377C40.014 1.642 36.16.365 30.286 0c-5.506 5.107-5.322 15.503 0 20.245 2.203-8.754 7.342-13.497 14.132-15.868ZM50.842 9.302c-8.26-.365-14.683 7.113-14.683 14.409 6.791-4.56 14.683-4.742 21.29-1.095-1.1-5.836-3.184-8.913-6.607-13.314ZM58 30.094c-5.14-5.471-15.233-4.924-20.189.183 8.093 1.953 12.48 5.654 16.151 13.861C56.764 39.541 58 36.114 58 30.095ZM48.823 50.522c-.55-8.755-6.524-13.905-14.499-14.409 4.128 7.174 4.956 13.862 1.285 21.157 5.48-1.49 8.626-2.918 13.214-6.748ZM27.717 58c5.322-5.29 5.69-13.862 0-20.245-2.203 8.937-6.975 13.496-14.132 16.05 4.929 2.989 8.13 3.663 14.132 4.195ZM7.528 48.698c8.574-.796 14.132-6.383 14.132-14.591-5.323 4.195-14.316 4.742-21.29 1.641 1.948 5.667 3.496 8.63 7.158 12.95ZM.003 27.723c4.588 4.925 14.132 5.654 20.189 0-8.627-2.006-13.679-7.058-15.968-13.68-2.57 3.831-4.303 9.123-4.221 13.68ZM9.18 7.66c1.285 8.755 6.057 13.497 14.5 14.227-4.262-7.003-4.59-13.68-1.47-21.157-6.056 1.459-9.259 3.47-13.03 6.93Z" fill="#F73737"/></svg>